<?xml version="1.0" encoding="UTF-8" standalone="no"?>
<svg
   xmlns="http://www.w3.org/2000/svg"
   width="1792"
   height="1792"
   viewBox="0 0 1792 1792"
   id="svg4200"
>
  <path
     d="m 192,1240 q 0,27 10,70.5 10,43.5 21,68.5 21,50 122,106 94,51 186,51 27,0 53,-3.5 26,-3.5 57.5,-12.5 31.5,-9 47,-14.5 15.5,-5.5 55.5,-20.5 40,-15 49,-18 98,-35 175,-83 127,-79 264,-216 137,-137 216,-264 48,-77 83,-175 3,-9 18,-49 15,-40 20.5,-55.5 5.5,-15.5 14.5,-47 9,-31.5 12.5,-57.5 3.5,-26 3.5,-53 0,-92 -51,-186 -56,-101 -106,-122 -25,-11 -68.5,-21 -43.5,-10 -70.5,-10 -14,0 -21,3 -18,6 -53,76 -11,19 -30,54 -19,35 -35,63.5 -16,28.5 -31,53.5 -3,4 -17.5,25 -14.5,21 -21.5,35.5 -7,14.5 -7,28.5 0,20 28.5,50 28.5,30 62,55 33.5,25 62,53 28.5,28 28.5,46 0,9 -5,22.5 -5,13.5 -8.5,20.5 -3.5,7 -14,24 -10.5,17 -11.5,19 -76,137 -174,235 -98,98 -235,174 -2,1 -19,11.5 -17,10.5 -24,14 -7,3.5 -20.5,8.5 -13.5,5 -22.5,5 -18,0 -46,-28.5 -28,-28.5 -53,-62 -25,-33.5 -55,-62 -30,-28.5 -50,-28.5 -14,0 -28.5,7 -14.5,7 -35.5,21.5 -21,14.5 -25,17.5 -25,15 -53.5,31 -28.5,16 -63.5,35 -35,19 -54,30 -70,35 -76,53 -3,7 -3,21 z"
     id="path4202"/>
</svg>
