<svg xmlns="http://www.w3.org/2000/svg" width="1792" height="1792"><path d="M192 1240q0 27 10 70.5t21 68.5q21 50 122 106 94 51 186 51 27 0 53-3.5t57.5-12.5q31.5-9 47-14.5T744 1485q40-15 49-18 98-35 175-83 127-79 264-216t216-264q48-77 83-175 3-9 18-49t20.5-55.5q5.5-15.5 14.5-47t12.5-57.5q3.5-26 3.5-53 0-92-51-186-56-101-106-122-25-11-68.5-21t-70.5-10q-14 0-21 3-18 6-53 76-11 19-30 54t-35 63.5q-16 28.5-31 53.5-3 4-17.5 25t-21.5 35.5q-7 14.5-7 28.5 0 20 28.5 50t62 55q33.5 25 62 53t28.5 46q0 9-5 22.5t-8.5 20.5q-3.5 7-14 24t-11.5 19q-76 137-174 235t-235 174q-2 1-19 11.5t-24 14q-7 3.5-20.5 8.5t-22.5 5q-18 0-46-28.5t-53-62q-25-33.5-55-62t-50-28.5q-14 0-28.5 7t-35.5 21.5q-21 14.5-25 17.5-25 15-53.5 31t-63.5 35q-35 19-54 30-70 35-76 53-3 7-3 21z"/></svg>