<svg xmlns="http://www.w3.org/2000/svg" width="512" height="512" viewBox="0 0 612.056 612.057"><path d="M595.2 513.908L493.775 412.482c26.707-41.727 42.685-91.041 42.685-144.263C536.459 120.085 416.375 0 268.24 0 120.106 0 .021 120.085.021 268.219c0 148.134 120.085 268.22 268.219 268.22 53.222 0 102.537-15.979 144.225-42.686l101.426 101.463c22.454 22.453 58.854 22.453 81.271 0 22.492-22.491 22.492-58.855.038-81.308zm-326.96-54.103c-105.793 0-191.585-85.793-191.585-191.585 0-105.793 85.792-191.585 191.585-191.585s191.585 85.792 191.585 191.585c.001 105.792-85.791 191.585-191.585 191.585z" fill="#FFF"/></svg>